<?xml version="1.0"?><svg width="533.3333333333333" height="533.3333333333333" xmlns="http://www.w3.org/2000/svg">
 <title>rocket</title>

 <g>
  <title>Layer 1</title>
  <rect id="svg_2" height="540.999986" width="535.000008" y="-5.335059" x="-1.333303" stroke-width="5" stroke="#000000" fill="#000000"/>
  <g id="g846">
   <path fill="#ff4000" fill-rule="evenodd" stroke-width="3.75" id="path671" d="m271.335602,360.758789c0,0 12.771149,37.857941 27.244232,69.693359c14.474121,31.836456 40.016418,47.323425 43.422333,47.323425c3.404877,0 6.810791,-18.068451 5.95932,-28.393463c-0.851501,-10.324951 -24.690796,-30.975952 16.177063,1.720001c40.866882,32.695953 69.814056,46.462921 67.259613,35.277435c4.257416,-27.533936 -43.421295,-85.181305 -12.770142,-74.856354c30.650146,10.324982 82.585205,34.416931 50.232117,-3.441986c-32.353088,-37.857941 -65.557678,-55.066895 -37.460968,-54.206421c28.095734,0.860504 55.339996,13.766998 41.718353,-11.185486c-13.62262,-24.952454 -79.160248,-63.758148 -107.255951,-80.106598c-22.136414,11.185486 -65.577759,40.527679 -94.52597,98.176086z"/>
   <path fill="#ffff33" fill-opacity="0.696296" fill-rule="evenodd" stroke-width="12.5" stroke-linejoin="round" id="path672" d="m284.053986,339.743011c0,0 9.327026,44.940002 19.502014,58.505981c10.174988,13.567017 12.718994,11.871002 15.263,-6.78299c2.544006,-18.653992 -15.263,-37.30899 15.261993,-16.958008c30.526001,20.350006 56.811005,45.787018 41.549011,14.414001c-15.263,-31.372986 -19.502991,-39.003998 1.695007,-27.980988c21.197998,11.02298 41.548981,19.501984 16.109985,-11.02301c-19.501007,-22.04599 19.502014,-27.981995 26.286011,-30.524994c16.110992,2.544006 -68.681,-44.94101 -77.160004,-44.94101c-9.328003,1.696014 -55.115997,58.507019 -58.507019,65.291016z"/>
  </g>
 </g>
</svg>